<svg width="843" height="509" viewBox="0 0 843 509" fill="none" xmlns="http://www.w3.org/2000/svg">
<path d="M312.676 0.0436344C315.526 0.0421276 318.376 0.0372314 321.226 0.0317859C447.661 -0.149275 447.661 -0.149275 467.397 17.4835C470.036 20.3839 471.768 22.6162 473.014 26.3546C466.342 40.7604 451.031 47.4211 437.585 54.089C436.175 54.7907 434.766 55.4924 433.357 56.1942C432.64 56.5509 431.922 56.9075 431.184 57.275C427.674 59.0216 424.168 60.7763 420.663 62.5304C419.284 63.2199 417.905 63.9093 416.526 64.5987C415.846 64.9388 415.166 65.2789 414.465 65.6293C406.648 69.5377 398.831 73.4462 391.014 77.3546C391.014 78.0146 391.014 78.6746 391.014 79.3546C392.063 79.3708 393.111 79.3869 394.192 79.4036C404.121 79.5593 414.051 79.7349 423.98 79.9296C429.083 80.0291 434.186 80.1218 439.29 80.1983C444.225 80.2726 449.159 80.3655 454.093 80.4707C455.966 80.5075 457.84 80.5378 459.713 80.5613C473.017 80.7337 485.948 81.0942 496.639 90.0421C497.166 90.4742 497.694 90.9063 498.237 91.3514C499.314 92.2372 500.385 93.1311 501.449 94.0333C503.93 96.1277 506.481 98.1363 509.014 100.167C511.772 102.408 514.043 104.39 516.264 107.179C518.908 109.758 518.908 109.758 522.663 109.193C529.173 108.284 535.61 106.914 542.047 105.59C544.451 105.096 546.856 104.607 549.261 104.119C552.715 103.418 556.168 102.716 559.621 102.013C629.073 87.8884 698.998 74.8209 769.766 69.5246C771.96 69.3587 774.153 69.1848 776.346 69.0084C792.001 67.7601 807.626 67.1542 823.327 67.0421C824.098 67.0325 824.87 67.0228 825.665 67.0129C827.84 66.9894 830.014 66.9869 832.19 66.9913C833.437 66.9883 834.684 66.9854 835.969 66.9823C839.014 67.3546 839.014 67.3546 840.913 68.7015C842.689 71.368 842.444 73.225 842.014 76.3546C839.63 81.024 836.343 83.9338 832.417 87.253C824.603 94.0884 817.615 101.587 811.159 109.706C809.025 112.341 806.8 114.851 804.514 117.355C801.4 120.772 798.422 124.26 795.514 127.855C791.865 132.362 788.07 136.696 784.167 140.984C781.067 144.398 778.041 147.876 775.014 151.355C776.284 151.453 777.554 151.551 778.862 151.651C797.536 153.222 816.614 155.98 829.503 171.101C833.004 176.206 833.905 181.279 833.014 187.355C829.739 197.098 823.051 204.698 816.577 212.461C814.1 215.462 811.716 218.534 809.327 221.605C804.641 227.592 799.85 233.487 795.014 239.355C793.514 241.187 792.014 243.021 790.514 244.855C789.769 245.765 789.024 246.675 788.256 247.612C786.78 249.418 785.306 251.225 783.835 253.034C779.316 258.582 774.732 264.068 770.098 269.52C767.219 272.914 764.382 276.337 761.577 279.792C757.618 284.657 753.548 289.415 749.454 294.165C746.442 297.667 743.484 301.202 740.577 304.792C736.434 309.898 732.132 314.853 727.811 319.807C724.65 323.442 721.546 327.11 718.514 330.855C714.395 335.943 710.113 340.875 705.811 345.808C702.649 349.442 699.546 353.11 696.514 356.855C692.939 361.271 689.248 365.572 685.514 369.855C681.017 375.013 676.623 380.233 672.319 385.554C670.126 388.219 667.886 390.834 665.625 393.443C659.029 401.055 652.828 408.902 646.805 416.975C640.365 425.606 633.465 433.58 626.014 441.355C625.304 442.106 624.594 442.858 623.862 443.632C613.415 454.421 600.867 463.192 589.014 472.355C592.406 472.355 594.725 471.569 597.94 470.491C599.726 469.903 599.726 469.903 601.547 469.302C604.025 468.476 606.501 467.648 608.977 466.818C643.659 455.405 684.907 455.894 718.014 472.355C718.014 472.685 718.014 473.015 718.014 473.355C717.335 473.374 716.657 473.394 715.957 473.415C686.236 474.325 663.38 479.542 636.694 492.398C624.598 498.181 613.292 503.264 600.014 505.355C599.208 505.492 598.401 505.629 597.57 505.77C566.115 511.093 536.39 508.681 505.052 503.528C480.014 499.396 480.014 499.396 454.827 496.355C453.813 496.255 452.8 496.155 451.756 496.052C448.51 495.768 445.267 495.55 442.014 495.355C441.214 495.305 440.414 495.256 439.59 495.205C425.118 494.343 410.861 494.428 396.389 495.167C394.383 495.262 392.376 495.356 390.37 495.45C375.773 496.147 361.195 497.041 346.627 498.203C343.751 498.37 340.895 498.379 338.014 498.355C340.489 496.705 342.207 495.821 344.944 494.874C345.728 494.601 346.512 494.328 347.319 494.046C348.167 493.756 349.015 493.466 349.889 493.167C350.78 492.86 351.67 492.554 352.588 492.237C354.464 491.593 356.341 490.95 358.219 490.31C360.847 489.412 363.47 488.5 366.092 487.585C393.976 477.96 422.684 470.189 452.327 469.917C453.029 469.91 453.732 469.903 454.456 469.896C474.959 469.801 495.3 472.682 515.595 475.327C522.389 476.202 529.184 476.836 536.014 477.355C503.255 466.042 471.05 456.131 436.077 456.105C434.882 456.104 434.882 456.104 433.663 456.103C395.811 456.153 359.334 464.916 323.132 475.315C261.573 492.994 190.201 512.108 128.014 487.355C128.014 487.025 128.014 486.695 128.014 486.355C135.337 485.247 142.618 485.103 150.014 484.917C169.145 484.351 187.955 482.802 206.889 479.98C207.562 479.881 208.234 479.782 208.927 479.679C219.745 478.069 230.365 475.828 241.014 473.355C240.244 473.347 239.473 473.338 238.679 473.33C231.257 473.251 223.835 473.163 216.413 473.067C212.602 473.018 208.79 472.972 204.978 472.933C189.038 472.767 173.136 472.455 157.225 471.417C156.008 471.338 154.79 471.259 153.536 471.177C107.213 467.929 60.7003 457.764 16.0142 445.355C16.0142 445.025 16.0142 444.695 16.0142 444.355C17.2704 444.335 18.5266 444.315 19.8209 444.295C65.5559 443.902 65.5559 443.902 111.014 439.355C94.8132 436.13 78.5163 433.789 62.1553 431.549C28.1976 426.867 28.1977 426.867 21.3848 418.385C18.9785 414.82 17.5242 411.011 16.0767 406.98C15.7424 406.071 15.4082 405.163 15.0638 404.227C0.59499 363.926 -7.63468 324.646 10.0142 284.355C12.0867 280.141 14.3535 276.222 17.0142 272.355C17.5105 271.621 18.0068 270.888 18.5181 270.132C27.0239 259.068 40.5129 255.251 53.2642 251.292C54.2556 250.983 54.2556 250.983 55.267 250.668C66.6265 247.161 66.6264 247.161 69.0142 248.355C67.9181 250.796 66.8128 253.233 65.7017 255.667C65.2386 256.703 65.2386 256.703 64.7662 257.759C64.46 258.426 64.1538 259.093 63.8384 259.78C63.5609 260.393 63.2833 261.006 62.9974 261.637C60.5159 265.972 57.0377 267.462 52.5884 269.542C51.3031 270.164 50.0187 270.788 48.7349 271.413C46.7275 272.385 44.7178 273.347 42.6922 274.281C33.3605 278.605 28.0091 282.506 24.0142 292.355C23.1759 294.032 22.3248 295.703 21.4595 297.366C20.684 298.924 19.9105 300.482 19.1392 302.042C18.5359 303.255 18.5359 303.255 17.9205 304.493C16.9498 306.446 15.9817 308.4 15.0142 310.355C15.5067 310.105 15.9992 309.856 16.5066 309.599C56.4558 289.55 99.0018 273.762 141.81 261.012C144.116 260.324 146.42 259.631 148.723 258.938C224.716 236.084 301.755 221.006 380.417 210.695C382.758 210.388 385.099 210.078 387.439 209.767C436.67 203.269 486.483 199.622 536.014 196.355C537.425 196.261 538.835 196.168 540.246 196.074C602.134 191.98 664.08 189.275 726.049 186.725C731.232 186.512 736.415 186.296 741.598 186.075C742.68 186.029 743.763 185.984 744.877 185.936C746.932 185.849 748.987 185.762 751.042 185.673C758.493 185.358 765.931 185.163 773.389 185.167C774.555 185.166 775.72 185.166 776.921 185.165C785.166 185.215 793.216 185.772 801.378 186.917C804.962 187.348 808.408 187.429 812.014 187.355C811.21 186.024 811.21 186.024 810.389 184.667C810.088 184.168 809.786 183.669 809.475 183.155C805.228 177.92 801.302 175.723 794.764 174.23C794.077 174.071 793.391 173.913 792.683 173.75C775.316 169.865 758.096 168.297 740.321 167.827C738.819 167.785 737.317 167.743 735.815 167.701C720.246 167.278 704.674 167.009 689.1 166.8C688.346 166.79 687.591 166.779 686.814 166.769C646.698 166.218 606.583 166.201 566.464 166.226C558.559 166.23 550.655 166.227 542.75 166.222C533.964 166.217 525.178 166.218 516.392 166.221C512.754 166.222 509.117 166.221 505.479 166.218C485.92 166.206 466.374 166.366 446.819 166.827C445.917 166.848 445.015 166.869 444.086 166.891C429.985 167.229 415.906 167.732 401.827 168.605C400.79 168.667 399.753 168.73 398.685 168.794C302.965 174.636 211.124 194.573 119.389 221.855C118.448 222.134 117.508 222.413 116.538 222.701C106.454 225.703 96.4171 228.829 86.4283 232.136C85.5425 232.428 84.6567 232.72 83.744 233.021C82.92 233.297 82.0961 233.572 81.2471 233.857C80.5243 234.098 79.8015 234.339 79.0568 234.588C76.9572 235.376 75.0008 236.317 73.0142 237.355C74.5746 232.312 76.6164 227.603 78.8033 222.812C79.1786 221.983 79.5539 221.155 79.9406 220.301C81.1706 217.588 82.4048 214.878 83.6392 212.167C84.5011 210.269 85.3627 208.37 86.2242 206.472C92.2049 193.3 98.2127 180.139 104.236 166.986C108.967 156.653 113.672 146.309 118.368 135.96C122.043 127.863 125.735 119.773 129.452 111.694C129.827 110.878 130.203 110.062 130.589 109.221C132.401 105.284 134.214 101.348 136.03 97.4137C140.783 87.1008 145.426 76.7419 150.014 66.3546C149.313 66.4361 148.612 66.5177 147.89 66.6017C144.705 66.9591 141.516 67.2822 138.327 67.6046C137.224 67.7335 136.121 67.8624 134.985 67.9952C126.844 68.7822 126.844 68.7822 122.784 66.6905C120.216 63.3015 120.302 61.2095 120.545 57.0773C121.536 51.3229 123.603 46.3646 128.162 42.5643C128.965 42.0246 129.769 41.4849 130.596 40.9288C131.486 40.3303 132.376 39.7318 133.294 39.1151C146.163 30.7875 159.562 23.3908 173.139 16.2921C173.743 15.9728 174.348 15.6535 174.97 15.3246C195.254 4.63902 214.892 2.99441 237.389 1.7296C238.547 1.66423 239.705 1.59886 240.898 1.53151C264.816 0.238421 288.728 0.0515496 312.676 0.0436344ZM254.917 32.7379C253.473 32.7834 253.473 32.7834 252.001 32.8298C251.121 32.8679 250.241 32.906 249.334 32.9452C248.568 32.9758 247.802 33.0064 247.013 33.0379C244.701 33.2616 244.701 33.2616 242.014 35.3546C244.346 36.5204 245.942 36.5769 248.542 36.7276C249.957 36.8128 249.957 36.8128 251.401 36.8996C252.431 36.957 253.461 37.0143 254.522 37.0733C256.13 37.1676 256.13 37.1676 257.771 37.2637C260.059 37.3968 262.348 37.5278 264.636 37.6568C268.049 37.8495 271.461 38.0487 274.874 38.2491C289.581 39.103 304.291 39.82 319.014 40.3546C320.295 40.4012 321.577 40.4477 322.897 40.4957C345.561 41.17 368.018 39.0366 390.573 37.0646C398.713 36.3599 406.855 35.8045 415.014 35.3546C415.014 34.6946 415.014 34.0346 415.014 33.3546C397.82 32.4245 380.669 32.2063 363.452 32.2218C360.76 32.2211 358.067 32.2201 355.375 32.2189C349.772 32.2171 344.168 32.2194 338.564 32.2242C332.155 32.2297 325.746 32.2279 319.336 32.2224C313.759 32.2178 308.181 32.2172 302.603 32.2198C299.304 32.2214 296.006 32.2213 292.707 32.2183C280.105 32.2094 267.512 32.2724 254.917 32.7379ZM242.855 61.8182C236.752 61.8801 230.649 61.9395 224.545 61.9991C212.702 62.1152 200.858 62.234 189.014 62.3546C187.095 65.8602 185.177 69.3671 183.26 72.8741C182.721 73.859 182.182 74.8439 181.626 75.8586C177.633 83.1679 173.797 90.5296 170.16 98.0226C168.84 100.708 167.483 103.374 166.127 106.042C159.412 119.429 153.595 132.99 148.264 146.98C147.956 147.78 147.648 148.58 147.33 149.404C146.446 151.709 145.579 154.018 144.717 156.331C144.458 157.008 144.198 157.686 143.93 158.383C142.122 163.334 141.399 168.106 141.014 173.355C144.487 170.738 147.151 168.134 149.764 164.667C155.447 157.403 161.947 151.142 168.94 145.151C171.216 143.18 173.423 141.143 175.639 139.105C181.844 133.521 188.379 128.409 195.014 123.355C195.738 122.801 196.462 122.247 197.208 121.676C208.395 113.155 219.826 105.373 232.014 98.3546C233.393 97.5386 233.393 97.5386 234.799 96.7062C247.018 89.9746 261.601 88.6195 275.264 87.3546C276.906 87.1939 278.548 87.0327 280.19 86.8712C303.098 84.6608 326.062 83.0299 349.014 81.3546C347.622 77.7685 346.055 74.6197 344.014 71.3546C341.973 68.0895 340.407 64.9407 339.014 61.3546C306.958 61.274 274.909 61.4904 242.855 61.8182ZM814.014 80.3546C813.28 80.4307 812.546 80.5069 811.79 80.5854C797.096 82.1018 782.4 83.5305 767.678 84.7491C766.287 84.8646 764.896 84.9802 763.505 85.0957C762.461 85.1824 762.461 85.1824 761.395 85.2709C760.695 85.329 759.994 85.3872 759.273 85.4471C758.57 85.5055 757.867 85.5638 757.142 85.624C733.786 87.5666 710.465 89.6575 687.202 92.5421C686.207 92.6624 685.213 92.7828 684.189 92.9068C681.414 93.2457 678.642 93.5996 675.87 93.9601C674.685 94.1051 674.685 94.1051 673.477 94.2531C667.159 95.113 660.905 96.1796 656.573 101.163C655.84 102.358 655.135 103.569 654.452 104.792C654.055 105.464 653.657 106.137 653.248 106.829C651.801 109.319 650.405 111.833 649.014 114.355C648.4 115.459 647.785 116.564 647.152 117.702C645.107 121.388 643.088 125.088 641.077 128.792C640.748 129.395 640.419 129.998 640.08 130.62C636.395 137.404 633.166 143.929 631.014 151.355C632.643 152.983 634.479 152.519 636.73 152.556C637.75 152.574 638.771 152.593 639.822 152.612C640.951 152.628 642.081 152.643 643.244 152.659C645.017 152.688 645.017 152.688 646.826 152.717C657.763 152.886 668.701 152.985 679.638 153.058C687.718 153.114 695.795 153.209 703.874 153.354C709.559 153.453 715.243 153.505 720.929 153.524C724.321 153.537 727.711 153.57 731.103 153.654C745.779 154.705 745.779 154.705 759.03 149.79C761.911 146.983 763.952 143.805 766.014 140.355C767.468 138.542 768.944 136.747 770.452 134.98C771.533 133.638 771.533 133.638 772.635 132.269C775.875 128.3 779.224 124.43 782.57 120.551C785.634 116.991 788.63 113.388 791.577 109.73C795.21 105.247 799.046 101.011 802.975 96.7906C807.244 92.1754 811.173 87.3289 815.014 82.3546C814.684 81.6946 814.354 81.0346 814.014 80.3546ZM408.014 93.3546C409.852 97.2506 412.359 100.356 415.077 103.667C422.233 112.567 427.944 122.129 433.014 132.355C434.216 132.023 435.418 131.69 436.657 131.348C481.258 119.039 481.258 119.039 502.014 114.355C491.913 104.032 481.828 94.5352 466.784 94.0382C465.52 93.9962 464.257 93.9542 462.956 93.911C461.579 93.8709 460.203 93.8313 458.827 93.7921C458.132 93.7709 457.438 93.7497 456.722 93.7279C440.487 93.2382 424.255 93.2524 408.014 93.3546ZM295.327 96.9171C294.42 96.981 293.514 97.045 292.58 97.1109C290.033 97.2926 287.486 97.4803 284.94 97.671C283.817 97.7522 283.817 97.7522 282.671 97.835C279.363 98.0917 276.198 98.3871 273.014 99.3546C274.662 103.1 277.063 106.163 279.577 109.355C280.486 110.521 281.395 111.687 282.303 112.855C282.76 113.441 283.217 114.028 283.687 114.632C285.648 117.177 287.546 119.768 289.452 122.355C293.862 128.259 298.521 133.939 303.45 139.421C305.014 141.355 305.014 141.355 306.78 144.214C309.843 148.799 311.978 151.946 317.56 153.066C321.935 153.172 326.24 152.627 330.577 152.105C333.033 151.872 335.491 151.66 337.949 151.449C339.662 151.302 341.374 151.147 343.085 150.987C349.325 150.42 355.516 150.202 361.78 150.167C363.107 150.156 363.107 150.156 364.462 150.145C367.916 150.119 371.369 150.097 374.823 150.124C391.294 150.227 403.817 145.837 418.014 137.355C413.832 129.619 409.06 122.499 403.952 115.355C398.901 108.276 394.44 101.38 391.014 93.3546C359.107 92.7668 327.141 94.6512 295.327 96.9171ZM629.569 102.499C628.455 102.687 628.455 102.687 627.319 102.879C624.841 103.302 622.365 103.733 619.889 104.167C618.604 104.391 618.604 104.391 617.293 104.619C589.024 109.567 560.949 115.788 533.014 122.355C537.09 127.836 542.036 131.846 547.383 136.06C549.133 137.449 550.865 138.86 552.596 140.273C553.818 141.259 555.041 142.244 556.264 143.23C556.83 143.694 557.396 144.158 557.979 144.637C566.197 151.184 574.188 152.513 584.471 152.452C585.374 152.451 586.277 152.449 587.207 152.448C590.081 152.442 592.954 152.43 595.827 152.417C597.779 152.412 599.732 152.408 601.684 152.403C606.461 152.392 611.238 152.375 616.014 152.355C616.452 151.439 616.889 150.523 617.34 149.579C632.945 116.957 632.945 116.957 641.014 103.355C641.344 102.695 641.674 102.035 642.014 101.355C637.766 101.205 633.74 101.782 629.569 102.499ZM249.784 105.241C248.99 105.679 248.197 106.116 247.379 106.567C246.537 107.054 245.695 107.54 244.827 108.042C243.942 108.542 243.058 109.043 242.147 109.558C222.332 120.932 203.345 134.467 186.014 149.355C185.249 150.009 184.483 150.664 183.694 151.339C172.072 161.541 160.429 172.289 152.014 185.355C156.524 186.759 160.155 185.531 164.588 184.327C166.367 183.864 168.146 183.4 169.926 182.938C170.866 182.69 171.805 182.442 172.774 182.186C188.698 178.003 204.655 174.197 220.827 171.105C221.655 170.946 222.483 170.787 223.336 170.623C232.9 168.8 242.482 167.088 252.073 165.413C252.975 165.255 253.878 165.096 254.808 164.933C259.135 164.173 263.462 163.424 267.795 162.699C269.342 162.432 270.889 162.165 272.436 161.898C273.482 161.729 273.482 161.729 274.548 161.558C281.011 160.419 285.045 157.472 290.014 153.355C288.573 149.1 286.452 146.149 283.639 142.667C274.785 131.445 266.683 119.63 260.612 106.663C259.226 104.163 259.226 104.163 256.679 103.592C253.613 103.319 252.441 103.756 249.784 105.241ZM483.952 128.355C483.006 128.572 482.061 128.789 481.087 129.013C466.647 132.483 452.75 137.763 439.014 143.355C439.014 144.345 439.014 145.335 439.014 146.355C441.33 147.512 442.788 147.53 445.369 147.611C446.721 147.654 446.721 147.654 448.1 147.699C452.23 147.796 456.359 147.87 460.489 147.924C462.666 147.961 464.842 148.016 467.018 148.088C470.158 148.192 473.294 148.236 476.436 148.269C477.405 148.312 478.374 148.355 479.372 148.4C482.187 148.392 484.352 148.276 487.014 147.355C489.659 144.657 491.254 141.669 493.014 138.355C494.052 136.899 495.111 135.458 496.202 134.042C496.67 133.427 497.138 132.812 497.62 132.179C498.08 131.577 498.54 130.975 499.014 130.355C500.015 129.022 501.016 127.689 502.014 126.355C495.691 126.12 490.103 126.924 483.952 128.355ZM516.014 129.355C507.729 137.713 507.728 137.713 504.014 148.355C516.224 148.355 528.434 148.355 541.014 148.355C536.94 144.28 532.83 140.408 528.514 136.605C527.863 136.015 527.212 135.426 526.542 134.819C521.935 130.729 521.935 130.729 516.014 129.355ZM748.456 205.941C746.439 206.034 744.423 206.128 742.407 206.221C739.537 206.355 736.667 206.49 733.798 206.625C727.009 206.945 720.221 207.26 713.432 207.573C712.678 207.608 711.923 207.643 711.146 207.679C701.787 208.11 692.429 208.505 683.065 208.823C595.994 211.805 508.833 219.754 410.063 230.137C407.986 230.358 405.91 230.577 403.833 230.796C384.213 232.866 364.605 235.02 345.014 237.355C343.497 237.535 343.497 237.535 341.95 237.719C296.731 243.148 252.398 253.553 208.305 264.772C206.238 265.298 204.17 265.819 202.102 266.339C150.284 279.424 96.9937 293.696 48.0142 315.355C47.3547 315.646 46.6953 315.937 46.0158 316.237C38.306 319.642 30.6124 323.084 22.9439 326.581C21.8223 327.092 20.7006 327.604 19.545 328.13C17.1333 329.126 17.1333 329.126 16.0142 330.355C15.7637 335.868 16.3027 340.541 17.6236 345.933C17.7917 346.625 17.9597 347.318 18.1329 348.032C18.4884 349.488 18.8483 350.944 19.2125 352.398C19.7588 354.583 20.29 356.771 20.8189 358.96C23.3766 369.428 26.0382 379.737 31.0142 389.355C123.739 389.943 214.621 381.397 306.014 365.355C307.708 365.057 307.708 365.057 309.436 364.754C397.835 349.182 485.661 329.621 573.128 309.542C573.935 309.357 574.743 309.171 575.575 308.98C582.95 307.287 590.324 305.588 597.691 303.861C611.53 300.62 625.386 297.608 639.354 294.984C640.031 294.856 640.707 294.728 641.404 294.596C648.593 293.246 655.73 292.037 663.014 291.355C659.343 292.636 655.671 293.914 651.997 295.188C650.171 295.822 648.345 296.459 646.52 297.097C624.783 304.628 602.824 311.218 580.645 317.304C575.998 318.58 571.353 319.864 566.709 321.151C555.165 324.346 543.62 327.535 532.072 330.716C520.758 333.833 509.446 336.959 498.139 340.105C497.353 340.323 496.566 340.542 495.756 340.768C471.175 347.612 446.799 354.921 422.561 362.909C402.104 369.644 381.461 375.509 360.637 380.999C358.543 381.551 356.449 382.105 354.355 382.658C300.865 396.799 247.594 409.195 193.014 418.355C193.014 418.685 193.014 419.015 193.014 419.355C198.868 420.043 204.688 420.578 210.573 420.89C211.361 420.933 212.149 420.976 212.961 421.02C214.62 421.11 216.28 421.198 217.94 421.285C220.415 421.415 222.889 421.554 225.364 421.693C236.26 422.283 247.104 422.466 258.014 422.355C259.632 422.343 261.25 422.332 262.868 422.322C341.702 421.69 419.159 409.241 496.014 392.355C496.844 392.173 497.675 391.992 498.53 391.805C525.166 385.98 551.594 379.265 578.031 372.605C580.706 371.932 583.382 371.26 586.058 370.588C598.06 367.573 610.045 364.498 622.014 361.355C622.912 361.119 623.81 360.884 624.736 360.642C630.188 359.212 635.632 357.758 641.069 356.272C642.771 355.81 644.475 355.353 646.181 354.904C656.405 352.201 664.618 349.911 670.866 340.683C671.317 340.028 671.769 339.373 672.234 338.699C672.698 338.008 673.162 337.317 673.639 336.605C674.685 335.086 675.732 333.567 676.78 332.05C677.313 331.273 677.846 330.496 678.395 329.695C681.007 325.919 683.695 322.198 686.389 318.48C686.926 317.737 687.463 316.994 688.017 316.229C692.568 309.945 697.17 303.7 701.783 297.463C705.195 292.845 708.568 288.202 711.91 283.533C718.011 275.013 724.341 266.706 730.807 258.46C734.163 254.178 737.427 249.834 740.678 245.472C743.579 241.602 746.513 237.758 749.452 233.917C750.005 233.193 750.559 232.47 751.13 231.724C753.711 228.353 756.297 224.985 758.893 221.624C763.031 216.266 767.14 210.908 771.014 205.355C763.477 205.279 755.983 205.58 748.456 205.941Z" fill="#183EFF"/>
</svg>
