<svg width="48" height="49" viewBox="0 0 48 49" fill="none" xmlns="http://www.w3.org/2000/svg">
<rect width="48" height="48.94" fill="white"/>
<path d="M36.5 38.94H12.5C11.0413 38.94 9.64236 38.3605 8.61091 37.3291C7.57946 36.2976 7 34.8987 7 33.44V21.44C7 19.9813 7.57946 18.5824 8.61091 17.5509C9.64236 16.5195 11.0413 15.94 12.5 15.94H13.7L16.06 12.44C16.5649 11.689 17.2467 11.0737 18.0454 10.6482C18.8441 10.2227 19.7351 10.0001 20.64 10H28.36C29.2649 10.0001 30.1559 10.2227 30.9546 10.6482C31.7533 11.0737 32.4351 11.689 32.94 12.44L35.3 15.94H36.5C37.9587 15.94 39.3576 16.5195 40.3891 17.5509C41.4205 18.5824 42 19.9813 42 21.44V33.44C42 34.8987 41.4205 36.2976 40.3891 37.3291C39.3576 38.3605 37.9587 38.94 36.5 38.94ZM12.5 18.94C11.837 18.94 11.2011 19.2034 10.7322 19.6722C10.2634 20.1411 10 20.777 10 21.44V33.44C10 34.103 10.2634 34.7389 10.7322 35.2078C11.2011 35.6766 11.837 35.94 12.5 35.94H36.5C37.163 35.94 37.7989 35.6766 38.2678 35.2078C38.7366 34.7389 39 34.103 39 33.44V21.44C39 20.777 38.7366 20.1411 38.2678 19.6722C37.7989 19.2034 37.163 18.94 36.5 18.94H34.5C34.2551 18.9396 34.0141 18.8792 33.798 18.7641C33.5818 18.6491 33.3971 18.4829 33.26 18.28L30.5 14.06C30.2813 13.7262 29.9853 13.45 29.6372 13.2551C29.289 13.0601 28.8989 12.952 28.5 12.94H20.64C20.2411 12.952 19.851 13.0601 19.5028 13.2551C19.1547 13.45 18.8587 13.7262 18.64 14.06L15.74 18.28C15.6029 18.4829 15.4182 18.6491 15.202 18.7641C14.9859 18.8792 14.7449 18.9396 14.5 18.94H12.5Z" fill="#183EFF"/>
<path d="M24 33.1364C22.7144 33.1364 21.4577 32.7477 20.3888 32.0195C19.3199 31.2913 18.4868 30.2563 17.9948 29.0453C17.5028 27.8343 17.3741 26.5018 17.6249 25.2162C17.8757 23.9306 18.4948 22.7498 19.4038 21.8229C20.3129 20.8961 21.471 20.2649 22.7319 20.0092C23.9928 19.7535 25.2997 19.8847 26.4874 20.3863C27.6752 20.8879 28.6903 21.7374 29.4046 22.8272C30.1188 23.9171 30.5 25.1984 30.5 26.5091C30.4947 28.2651 29.8082 29.9477 28.5904 31.1894C27.3725 32.4311 25.7223 33.131 24 33.1364ZM24 22.9406C23.3078 22.9406 22.6311 23.1499 22.0555 23.542C21.4799 23.9341 21.0313 24.4914 20.7664 25.1435C20.5015 25.7956 20.4322 26.5131 20.5673 27.2053C20.7023 27.8975 21.0356 28.5334 21.5251 29.0325C22.0146 29.5315 22.6383 29.8714 23.3172 30.0091C23.9961 30.1468 24.6999 30.0761 25.3394 29.806C25.9789 29.5359 26.5256 29.0786 26.9101 28.4917C27.2947 27.9049 27.5 27.2149 27.5 26.5091C27.4948 25.5643 27.1243 24.6598 26.4691 23.9917C25.8138 23.3236 24.9266 22.9459 24 22.9406Z" fill="#183EFF"/>
</svg>
