<svg width="20" height="20" viewBox="0 0 20 20" fill="none" xmlns="http://www.w3.org/2000/svg">
<path d="M17.7463 8.371V16.75C17.7463 17.2804 17.5356 17.7891 17.1605 18.1642C16.7855 18.5393 16.2768 18.75 15.7463 18.75H3.75433C3.22407 18.7497 2.71562 18.5389 2.34076 18.1639C1.96591 17.7888 1.75533 17.2803 1.75533 16.75V8.371M5.25233 6.5L5.75233 0.75M5.25233 6.5C5.25233 9.402 9.75033 9.402 9.75033 6.5M5.25233 6.5C5.25233 9.676 0.0973318 9.02 0.819332 6.252L1.86433 2.245C1.97601 1.81703 2.22641 1.43815 2.57635 1.16765C2.92629 0.897139 3.35603 0.750264 3.79833 0.75H15.7023C16.1446 0.750264 16.5744 0.897139 16.9243 1.16765C17.2743 1.43815 17.5247 1.81703 17.6363 2.245L18.6813 6.252C19.4033 9.021 14.2483 9.676 14.2483 6.5M9.75033 6.5V0.75M9.75033 6.5C9.75033 9.402 14.2483 9.402 14.2483 6.5M14.2483 6.5L13.7483 0.75" stroke="#183EFF" stroke-width="1.5" stroke-linecap="round" stroke-linejoin="round"/>
</svg>
